<?xml version="1.0" standalone="no"?><!DOCTYPE svg PUBLIC "-//W3C//DTD SVG 1.1//EN" "http://www.w3.org/Graphics/SVG/1.1/DTD/svg11.dtd"><svg class="icon" height="512" viewBox="0 0 1124 1024" version="1.1" xmlns="http://www.w3.org/2000/svg"><path d="M764.966925 976.039444l-1.06372 0.60784C699.92802 1039.102867 594.315781 1039.102867 530.644518 976.039444c-30.240052-30.695931-79.930989-30.695931-110.778881-1.215681l-0.7598 1.215681-0.7598 0.60784C354.066931 1039.102867 248.758613 1039.102867 185.087349 976.039444c-30.847892-31.151812-81.29863-30.695931-111.690642 0-17.019527 16.259726-44.068416 16.259726-61.087943 0-16.411686-17.779327-16.411686-44.068416 0-61.847743 46.499778-46.195857 118.528844-60.935983 180.224627-34.950813l2.583321 0.60784c18.691087 8.661723 35.558654 19.602847 49.690939 33.431213-0.60784-62.151664-3.647042-110.019081-13.980325-156.366898-12.308765-54.24974-36.166493-109.715161-80.99471-186.60695-11.700924-20.210688-4.862722-46.803697 15.955806-58.808542l2.431361-1.82352 81.754511-46.955657 0-182.655988c0-14.436205 12.156805-25.985169 26.137129-25.985169l0.455881 0 115.489643 0 0-82.818231c0-13.980325 11.700924-25.37733 25.68125-25.37733l0.60784 0 117.009244 0 0-119.896485c0-13.980325 11.700924-25.985169 26.44105-25.985169 14.132285 0 25.52929 12.004844 25.52929 25.985169l0 119.896485 117.465123 0c14.436205 0 25.985169 11.397005 25.985169 25.37733l0 0.60784 0 82.21039 115.793563 0c14.436205 0 26.44105 11.700924 26.44105 25.985169l0 0.60784 0 182.048148 83.729991 48.779178c20.818528 11.245044 27.65673 37.990015 16.259726 58.808542l-1.06372 0.60784c-37.230214 65.494785-60.024222 114.881803-73.852588 162.4453-12.916605 44.980177-17.779327 88.896633-19.602847 143.754213 22.034208 7.749963 41.637055 20.210688 58.808542 37.078253 30.695931 31.151812 81.602551 31.151812 112.298482 0 16.411686-16.259726 44.220377-16.259726 60.632063 0 17.171486 17.779327 17.171486 44.220377 0 61.847743-46.499778 46.195857-118.680804 61.087943-180.224627 35.558654l0 0c-20.362648-9.117604-38.597854-20.818528-53.6419-35.558654-30.392011-30.695931-80.23491-30.695931-111.082801-1.215681L764.966925 976.039444 764.966925 976.039444 764.966925 976.039444zM587.325619 396.919668 587.325619 396.919668l0 513.473032 4.862722 3.647042c30.088092 30.695931 79.77903 31.151812 110.323001 0.60784l1.215681-0.60784c24.921449-24.61753 56.529141-39.813535 88.896633-45.132137 1.975481-60.024222 7.901923-108.8034 22.338129-159.10218 13.220525-45.436057 32.215532-90.416234 62.151664-145.273814L587.325619 396.919668 587.325619 396.919668 587.325619 396.919668zM535.35528 877.417367 535.35528 877.417367 535.35528 396.919668 246.023332 564.68357c35.558654 66.558505 56.529141 119.136685 68.989865 173.538384 13.220525 57.896781 15.803846 116.249443 16.259726 194.356913 9.877404-4.102921 18.235206-9.117604 25.985169-17.779327l1.215681-0.60784 0.455881-0.30392C405.125511 868.299763 475.179097 853.711598 535.35528 877.417367L535.35528 877.417367 535.35528 877.417367zM301.640712 432.478321 301.640712 432.478321l238.577289-137.371891c13.372485-7.901923 29.936131-7.446043 42.852736 0l237.969449 137.371891 0-126.582727-115.641603 0-0.60784 0c-14.132285 0-25.37733-11.852884-25.37733-25.985169l0-82.36235L444.027286 197.548074l0 81.754511 0 0.60784c0 14.132285-11.700924 25.985169-26.44105 25.985169l-115.945523 0L301.640712 432.478321 301.640712 432.478321 301.640712 432.478321zM301.640712 432.478321" /></svg>